<?xml version="1.0" encoding="UTF-8"?>
<svg width="50" height="50" viewBox="0 0 50 50" fill="none" xmlns="http://www.w3.org/2000/svg">
  <!-- Gradients -->
  <defs>
    <linearGradient id="dropGradient" x1="0%" y1="0%" x2="100%" y2="100%">
      <stop offset="0%" stop-color="#1E88E5" />
      <stop offset="100%" stop-color="#0D47A1" />
    </linearGradient>
    <linearGradient id="logoGradient" x1="0%" y1="0%" x2="100%" y2="100%">
      <stop offset="0%" stop-color="#FA812F" />
      <stop offset="100%" stop-color="#E64A19" />
    </linearGradient>
  </defs>
  
  <!-- Dark background -->
  <circle cx="25" cy="25" r="25" fill="#121826"/>
  
  <!-- Oil drop icon -->
  <g transform="translate(5, 5)">
    <path d="M20 0C20 0 0 20 0 30C0 40 9 40 20 40C31 40 40 40 40 30C40 20 20 0 20 0Z" fill="url(#dropGradient)" />
    <path d="M20 10C20 10 8 22 8 28C8 34 14 34 20 34C26 34 32 34 32 28C32 22 20 10 20 10Z" fill="white" opacity="0.5" />
  </g>
  
  <!-- Orange P letter -->
  <g transform="translate(28, 25)">
    <path d="M-4 -10H4C7 -10 9 -8 9 -5V-5C9 -2 7 0 4 0H-4V-10Z" fill="url(#logoGradient)" stroke="#E64A19" stroke-width="1"/>
    <path d="M3 -3C3.55228 -3 4 -3.55228 4 -4C4 -4.44772 3.55228 -5 3 -5H1V-3H3Z" fill="white"/>
  </g>
  
  <!-- Circular ring -->
  <circle cx="25" cy="25" r="23" stroke="white" stroke-width="1.5" stroke-opacity="0.7" fill="none"/>
</svg> 